<svg width="515" height="97" viewBox="0 0 515 97" fill="none" xmlns="http://www.w3.org/2000/svg">
<path d="M466.507 84.6451C465.123 89.1991 467.692 94.0133 472.246 95.3981L477.159 96.8922C477.522 97.0027 477.907 96.7977 478.017 96.4343L480.731 87.5095C481.891 83.6941 479.739 79.6605 475.923 78.5003C472.108 77.3401 468.074 79.4926 466.914 83.308L466.507 84.6451Z" fill="#FFB73E"/>
<path d="M2.096 35C1.552 35 1.088 34.84 0.704 34.52C0.352 34.168 0.176 33.72 0.176 33.176V2.936C0.176 2.328 0.352 1.848 0.704 1.496C1.056 1.112 1.536 0.919998 2.144 0.919998C2.752 0.919998 3.232 1.112 3.584 1.496C3.936 1.848 4.112 2.328 4.112 2.936V31.64H19.616C20.192 31.64 20.64 31.784 20.96 32.072C21.28 32.36 21.44 32.776 21.44 33.32C21.44 33.864 21.28 34.28 20.96 34.568C20.64 34.856 20.192 35 19.616 35H2.096ZM35.171 35.336C32.963 35.336 31.011 34.84 29.315 33.848C27.651 32.856 26.355 31.448 25.427 29.624C24.531 27.768 24.083 25.624 24.083 23.192C24.083 20.76 24.531 18.632 25.427 16.808C26.355 14.952 27.651 13.528 29.315 12.536C31.011 11.544 32.963 11.048 35.171 11.048C37.379 11.048 39.331 11.544 41.027 12.536C42.723 13.528 44.019 14.952 44.915 16.808C45.843 18.632 46.307 20.76 46.307 23.192C46.307 25.624 45.843 27.768 44.915 29.624C44.019 31.448 42.723 32.856 41.027 33.848C39.331 34.84 37.379 35.336 35.171 35.336ZM35.171 32.12C37.475 32.12 39.235 31.368 40.451 29.864C41.699 28.328 42.323 26.104 42.323 23.192C42.323 20.344 41.699 18.152 40.451 16.616C39.203 15.048 37.443 14.264 35.171 14.264C32.899 14.264 31.139 15.048 29.891 16.616C28.643 18.152 28.019 20.344 28.019 23.192C28.019 26.072 28.627 28.28 29.843 29.816C31.091 31.352 32.867 32.12 35.171 32.12ZM71.06 11.144C71.668 11.144 72.148 11.32 72.5 11.672C72.852 12.024 73.028 12.488 73.028 13.064V33.416C73.028 36.904 72.132 39.528 70.34 41.288C68.548 43.08 65.892 43.976 62.372 43.976C58.948 43.976 56.1 43.304 53.828 41.96C52.676 41.32 52.1 40.584 52.1 39.752C52.1 39.304 52.212 38.936 52.436 38.648C52.692 38.36 53.012 38.216 53.396 38.216C53.716 38.216 54.292 38.44 55.124 38.888C56.244 39.464 57.348 39.928 58.436 40.28C59.524 40.632 60.82 40.808 62.324 40.808C64.596 40.808 66.308 40.2 67.46 38.984C68.612 37.8 69.188 36.056 69.188 33.752V29.624C68.516 31.128 67.476 32.28 66.068 33.08C64.692 33.88 63.06 34.28 61.172 34.28C59.124 34.28 57.3 33.8 55.7 32.84C54.132 31.88 52.9 30.52 52.004 28.76C51.14 27 50.708 24.968 50.708 22.664C50.708 20.36 51.14 18.328 52.004 16.568C52.9 14.808 54.132 13.448 55.7 12.488C57.3 11.528 59.124 11.048 61.172 11.048C63.028 11.048 64.644 11.448 66.02 12.248C67.396 13.048 68.436 14.184 69.14 15.656V13.064C69.14 12.488 69.3 12.024 69.62 11.672C69.972 11.32 70.452 11.144 71.06 11.144ZM61.94 31.064C64.18 31.064 65.94 30.328 67.22 28.856C68.5 27.352 69.14 25.288 69.14 22.664C69.14 20.072 68.5 18.04 67.22 16.568C65.972 15.064 64.212 14.312 61.94 14.312C59.668 14.312 57.876 15.064 56.564 16.568C55.284 18.04 54.644 20.072 54.644 22.664C54.644 25.288 55.284 27.352 56.564 28.856C57.876 30.328 59.668 31.064 61.94 31.064ZM82.193 35.24C81.617 35.24 81.137 35.08 80.753 34.76C80.401 34.408 80.225 33.928 80.225 33.32V13.064C80.225 12.456 80.401 11.992 80.753 11.672C81.137 11.32 81.617 11.144 82.193 11.144C82.769 11.144 83.233 11.32 83.585 11.672C83.937 11.992 84.113 12.456 84.113 13.064V33.32C84.113 33.96 83.937 34.44 83.585 34.76C83.233 35.08 82.769 35.24 82.193 35.24ZM82.193 6.104C81.425 6.104 80.801 5.88 80.321 5.432C79.841 4.984 79.601 4.392 79.601 3.656C79.601 2.952 79.841 2.376 80.321 1.928C80.801 1.48 81.425 1.256 82.193 1.256C82.961 1.256 83.585 1.48 84.065 1.928C84.545 2.376 84.785 2.952 84.785 3.656C84.785 4.392 84.545 4.984 84.065 5.432C83.585 5.88 82.961 6.104 82.193 6.104ZM103.141 11.048C108.741 11.048 111.541 14.136 111.541 20.312V33.32C111.541 33.928 111.365 34.408 111.013 34.76C110.693 35.08 110.229 35.24 109.621 35.24C109.013 35.24 108.533 35.08 108.181 34.76C107.829 34.408 107.653 33.928 107.653 33.32V20.552C107.653 18.376 107.221 16.792 106.357 15.8C105.525 14.808 104.181 14.312 102.325 14.312C100.181 14.312 98.4693 14.968 97.1893 16.28C95.9093 17.592 95.2693 19.368 95.2693 21.608V33.32C95.2693 33.928 95.0933 34.408 94.7413 34.76C94.4213 35.08 93.9573 35.24 93.3493 35.24C92.7413 35.24 92.2613 35.08 91.9093 34.76C91.5573 34.408 91.3813 33.928 91.3813 33.32V13.064C91.3813 12.488 91.5573 12.024 91.9093 11.672C92.2613 11.32 92.7413 11.144 93.3493 11.144C93.9253 11.144 94.3733 11.32 94.6933 11.672C95.0453 12.024 95.2213 12.472 95.2213 13.016V15.464C95.9893 14.024 97.0613 12.936 98.4373 12.2C99.8133 11.432 101.381 11.048 103.141 11.048ZM141.838 32.168C142.958 32.264 143.518 32.776 143.518 33.704C143.518 34.248 143.31 34.664 142.894 34.952C142.51 35.208 141.918 35.304 141.118 35.24L139.822 35.144C137.262 34.952 135.374 34.184 134.158 32.84C132.942 31.496 132.334 29.464 132.334 26.744V14.696H129.118C128.574 14.696 128.142 14.568 127.822 14.312C127.534 14.024 127.389 13.656 127.389 13.208C127.389 12.728 127.534 12.344 127.822 12.056C128.142 11.768 128.574 11.624 129.118 11.624H132.334V6.2C132.334 5.592 132.51 5.128 132.862 4.808C133.214 4.456 133.694 4.28 134.302 4.28C134.878 4.28 135.342 4.456 135.694 4.808C136.046 5.128 136.222 5.592 136.222 6.2V11.624H141.549C142.062 11.624 142.462 11.768 142.75 12.056C143.07 12.344 143.23 12.728 143.23 13.208C143.23 13.656 143.07 14.024 142.75 14.312C142.462 14.568 142.062 14.696 141.549 14.696H136.222V26.936C136.222 28.696 136.574 29.976 137.278 30.776C138.014 31.544 139.102 31.976 140.542 32.072L141.838 32.168ZM157.046 35.336C154.838 35.336 152.886 34.84 151.19 33.848C149.526 32.856 148.23 31.448 147.302 29.624C146.406 27.768 145.958 25.624 145.958 23.192C145.958 20.76 146.406 18.632 147.302 16.808C148.23 14.952 149.526 13.528 151.19 12.536C152.886 11.544 154.838 11.048 157.046 11.048C159.254 11.048 161.206 11.544 162.902 12.536C164.598 13.528 165.894 14.952 166.79 16.808C167.718 18.632 168.182 20.76 168.182 23.192C168.182 25.624 167.718 27.768 166.79 29.624C165.894 31.448 164.598 32.856 162.902 33.848C161.206 34.84 159.254 35.336 157.046 35.336ZM157.046 32.12C159.35 32.12 161.11 31.368 162.326 29.864C163.574 28.328 164.198 26.104 164.198 23.192C164.198 20.344 163.574 18.152 162.326 16.616C161.078 15.048 159.318 14.264 157.046 14.264C154.774 14.264 153.014 15.048 151.766 16.616C150.518 18.152 149.894 20.344 149.894 23.192C149.894 26.072 150.502 28.28 151.718 29.816C152.966 31.352 154.742 32.12 157.046 32.12ZM216.062 32.744C216.19 33 216.254 33.272 216.254 33.56C216.254 34.04 216.062 34.44 215.678 34.76C215.326 35.08 214.894 35.24 214.382 35.24C213.582 35.24 213.022 34.856 212.702 34.088L209.294 26.312H191.198L187.742 34.088C187.422 34.856 186.862 35.24 186.062 35.24C185.55 35.24 185.102 35.08 184.718 34.76C184.334 34.408 184.142 33.992 184.142 33.512C184.142 33.256 184.206 33 184.334 32.744L198.062 2.216C198.254 1.768 198.542 1.432 198.926 1.208C199.31 0.983998 199.726 0.871999 200.174 0.871999C200.654 0.871999 201.086 0.999999 201.47 1.256C201.854 1.48 202.142 1.8 202.334 2.216L216.062 32.744ZM192.638 23.048H207.854L200.222 5.816L192.638 23.048ZM239.993 0.919998C240.601 0.919998 241.081 1.096 241.433 1.448C241.785 1.8 241.961 2.248 241.961 2.792V33.32C241.961 33.896 241.785 34.36 241.433 34.712C241.081 35.064 240.601 35.24 239.993 35.24C239.385 35.24 238.905 35.064 238.553 34.712C238.233 34.36 238.073 33.896 238.073 33.32V30.728C237.369 32.2 236.329 33.336 234.953 34.136C233.609 34.936 232.025 35.336 230.201 35.336C228.153 35.336 226.345 34.824 224.777 33.8C223.209 32.776 221.993 31.352 221.129 29.528C220.265 27.672 219.833 25.528 219.833 23.096C219.833 20.696 220.265 18.584 221.129 16.76C221.993 14.936 223.209 13.528 224.777 12.536C226.345 11.544 228.153 11.048 230.201 11.048C232.025 11.048 233.609 11.448 234.953 12.248C236.329 13.048 237.369 14.184 238.073 15.656V2.792C238.073 2.216 238.233 1.768 238.553 1.448C238.905 1.096 239.385 0.919998 239.993 0.919998ZM230.969 32.12C233.241 32.12 234.985 31.352 236.201 29.816C237.449 28.248 238.073 26.04 238.073 23.192C238.073 20.344 237.449 18.152 236.201 16.616C234.985 15.08 233.241 14.312 230.969 14.312C228.697 14.312 226.921 15.08 225.641 16.616C224.393 18.152 223.769 20.312 223.769 23.096C223.769 25.944 224.393 28.168 225.641 29.768C226.921 31.336 228.697 32.12 230.969 32.12ZM275.179 11.048C280.363 11.048 282.955 14.136 282.955 20.312V33.32C282.955 33.928 282.779 34.408 282.427 34.76C282.075 35.08 281.611 35.24 281.035 35.24C280.459 35.24 279.979 35.08 279.595 34.76C279.243 34.408 279.067 33.928 279.067 33.32V20.408C279.067 18.264 278.683 16.712 277.915 15.752C277.147 14.792 275.947 14.312 274.315 14.312C272.363 14.312 270.827 14.968 269.707 16.28C268.587 17.592 268.027 19.368 268.027 21.608V33.32C268.027 33.928 267.835 34.408 267.451 34.76C267.099 35.08 266.635 35.24 266.059 35.24C265.483 35.24 265.019 35.08 264.667 34.76C264.315 34.408 264.139 33.928 264.139 33.32V20.408C264.139 18.264 263.755 16.712 262.987 15.752C262.219 14.792 261.003 14.312 259.339 14.312C257.419 14.312 255.883 14.968 254.731 16.28C253.611 17.592 253.051 19.368 253.051 21.608V33.32C253.051 33.928 252.875 34.408 252.523 34.76C252.171 35.08 251.707 35.24 251.131 35.24C250.555 35.24 250.075 35.08 249.691 34.76C249.339 34.408 249.163 33.928 249.163 33.32V13.064C249.163 12.488 249.339 12.024 249.691 11.672C250.075 11.32 250.555 11.144 251.131 11.144C251.675 11.144 252.123 11.32 252.475 11.672C252.827 11.992 253.003 12.44 253.003 13.016V15.32C253.707 13.944 254.683 12.888 255.931 12.152C257.179 11.416 258.619 11.048 260.251 11.048C263.899 11.048 266.283 12.584 267.403 15.656C268.075 14.248 269.099 13.128 270.475 12.296C271.851 11.464 273.419 11.048 275.179 11.048ZM292.006 35.24C291.43 35.24 290.95 35.08 290.566 34.76C290.214 34.408 290.038 33.928 290.038 33.32V13.064C290.038 12.456 290.214 11.992 290.566 11.672C290.95 11.32 291.43 11.144 292.006 11.144C292.582 11.144 293.046 11.32 293.398 11.672C293.75 11.992 293.926 12.456 293.926 13.064V33.32C293.926 33.96 293.75 34.44 293.398 34.76C293.046 35.08 292.582 35.24 292.006 35.24ZM292.006 6.104C291.238 6.104 290.614 5.88 290.134 5.432C289.654 4.984 289.414 4.392 289.414 3.656C289.414 2.952 289.654 2.376 290.134 1.928C290.614 1.48 291.238 1.256 292.006 1.256C292.774 1.256 293.398 1.48 293.878 1.928C294.358 2.376 294.598 2.952 294.598 3.656C294.598 4.392 294.358 4.984 293.878 5.432C293.398 5.88 292.774 6.104 292.006 6.104ZM312.954 11.048C318.554 11.048 321.354 14.136 321.354 20.312V33.32C321.354 33.928 321.178 34.408 320.826 34.76C320.506 35.08 320.042 35.24 319.434 35.24C318.826 35.24 318.346 35.08 317.994 34.76C317.642 34.408 317.466 33.928 317.466 33.32V20.552C317.466 18.376 317.034 16.792 316.17 15.8C315.338 14.808 313.994 14.312 312.138 14.312C309.994 14.312 308.282 14.968 307.002 16.28C305.722 17.592 305.082 19.368 305.082 21.608V33.32C305.082 33.928 304.906 34.408 304.554 34.76C304.234 35.08 303.77 35.24 303.162 35.24C302.554 35.24 302.074 35.08 301.722 34.76C301.37 34.408 301.194 33.928 301.194 33.32V13.064C301.194 12.488 301.37 12.024 301.722 11.672C302.074 11.32 302.554 11.144 303.162 11.144C303.738 11.144 304.186 11.32 304.506 11.672C304.858 12.024 305.034 12.472 305.034 13.016V15.464C305.802 14.024 306.874 12.936 308.25 12.2C309.626 11.432 311.194 11.048 312.954 11.048ZM370.562 32.744C370.69 33 370.754 33.272 370.754 33.56C370.754 34.04 370.562 34.44 370.178 34.76C369.826 35.08 369.394 35.24 368.882 35.24C368.082 35.24 367.522 34.856 367.202 34.088L363.794 26.312H345.698L342.242 34.088C341.922 34.856 341.362 35.24 340.562 35.24C340.05 35.24 339.602 35.08 339.218 34.76C338.834 34.408 338.642 33.992 338.642 33.512C338.642 33.256 338.706 33 338.834 32.744L352.562 2.216C352.754 1.768 353.042 1.432 353.426 1.208C353.81 0.983998 354.226 0.871999 354.674 0.871999C355.154 0.871999 355.586 0.999999 355.97 1.256C356.354 1.48 356.642 1.8 356.834 2.216L370.562 32.744ZM347.138 23.048H362.354L354.722 5.816L347.138 23.048ZM385.373 35.336C383.197 35.336 381.261 34.84 379.565 33.848C377.901 32.856 376.605 31.448 375.677 29.624C374.781 27.8 374.333 25.688 374.333 23.288C374.333 20.888 374.797 18.76 375.725 16.904C376.685 15.048 378.013 13.608 379.709 12.584C381.405 11.56 383.357 11.048 385.565 11.048C386.781 11.048 387.981 11.224 389.165 11.576C390.381 11.896 391.437 12.376 392.333 13.016C392.909 13.4 393.309 13.784 393.533 14.168C393.789 14.52 393.917 14.92 393.917 15.368C393.917 15.816 393.789 16.184 393.533 16.472C393.309 16.76 393.005 16.904 392.621 16.904C392.397 16.904 392.157 16.84 391.901 16.712C391.645 16.584 391.421 16.456 391.229 16.328C391.069 16.2 390.957 16.12 390.893 16.088C390.061 15.544 389.261 15.112 388.493 14.792C387.757 14.472 386.845 14.312 385.757 14.312C383.421 14.312 381.597 15.112 380.285 16.712C379.005 18.28 378.365 20.472 378.365 23.288C378.365 26.104 379.005 28.28 380.285 29.816C381.597 31.352 383.421 32.12 385.757 32.12C386.845 32.12 387.773 31.96 388.541 31.64C389.341 31.32 390.141 30.888 390.941 30.344C391.293 30.12 391.629 29.928 391.949 29.768C392.269 29.608 392.541 29.528 392.765 29.528C393.117 29.528 393.405 29.672 393.629 29.96C393.885 30.248 394.013 30.616 394.013 31.064C394.013 31.48 393.901 31.864 393.677 32.216C393.453 32.536 393.037 32.904 392.429 33.32C391.533 33.928 390.445 34.424 389.165 34.808C387.917 35.16 386.653 35.336 385.373 35.336ZM408.342 35.336C406.166 35.336 404.23 34.84 402.534 33.848C400.87 32.856 399.574 31.448 398.646 29.624C397.75 27.8 397.302 25.688 397.302 23.288C397.302 20.888 397.766 18.76 398.694 16.904C399.654 15.048 400.982 13.608 402.678 12.584C404.374 11.56 406.326 11.048 408.534 11.048C409.75 11.048 410.95 11.224 412.134 11.576C413.35 11.896 414.406 12.376 415.302 13.016C415.878 13.4 416.278 13.784 416.502 14.168C416.758 14.52 416.886 14.92 416.886 15.368C416.886 15.816 416.758 16.184 416.502 16.472C416.278 16.76 415.974 16.904 415.59 16.904C415.366 16.904 415.126 16.84 414.87 16.712C414.614 16.584 414.39 16.456 414.198 16.328C414.038 16.2 413.926 16.12 413.862 16.088C413.03 15.544 412.23 15.112 411.462 14.792C410.726 14.472 409.814 14.312 408.726 14.312C406.39 14.312 404.566 15.112 403.254 16.712C401.974 18.28 401.334 20.472 401.334 23.288C401.334 26.104 401.974 28.28 403.254 29.816C404.566 31.352 406.39 32.12 408.726 32.12C409.814 32.12 410.742 31.96 411.51 31.64C412.31 31.32 413.11 30.888 413.91 30.344C414.262 30.12 414.598 29.928 414.918 29.768C415.238 29.608 415.51 29.528 415.734 29.528C416.086 29.528 416.374 29.672 416.598 29.96C416.854 30.248 416.982 30.616 416.982 31.064C416.982 31.48 416.87 31.864 416.646 32.216C416.422 32.536 416.006 32.904 415.398 33.32C414.502 33.928 413.414 34.424 412.134 34.808C410.886 35.16 409.622 35.336 408.342 35.336ZM431.359 35.336C429.151 35.336 427.199 34.84 425.503 33.848C423.839 32.856 422.543 31.448 421.615 29.624C420.719 27.768 420.271 25.624 420.271 23.192C420.271 20.76 420.719 18.632 421.615 16.808C422.543 14.952 423.839 13.528 425.503 12.536C427.199 11.544 429.151 11.048 431.359 11.048C433.567 11.048 435.519 11.544 437.215 12.536C438.911 13.528 440.207 14.952 441.103 16.808C442.031 18.632 442.495 20.76 442.495 23.192C442.495 25.624 442.031 27.768 441.103 29.624C440.207 31.448 438.911 32.856 437.215 33.848C435.519 34.84 433.567 35.336 431.359 35.336ZM431.359 32.12C433.663 32.12 435.423 31.368 436.639 29.864C437.887 28.328 438.511 26.104 438.511 23.192C438.511 20.344 437.887 18.152 436.639 16.616C435.391 15.048 433.631 14.264 431.359 14.264C429.087 14.264 427.327 15.048 426.079 16.616C424.831 18.152 424.207 20.344 424.207 23.192C424.207 26.072 424.815 28.28 426.031 29.816C427.279 31.352 429.055 32.12 431.359 32.12ZM466.048 11.144C466.656 11.144 467.12 11.32 467.44 11.672C467.792 12.024 467.968 12.488 467.968 13.064V33.368C467.968 33.912 467.792 34.36 467.44 34.712C467.12 35.064 466.656 35.24 466.048 35.24C465.472 35.24 465.008 35.08 464.656 34.76C464.336 34.408 464.176 33.96 464.176 33.416V31.016C463.44 32.424 462.4 33.496 461.056 34.232C459.744 34.968 458.256 35.336 456.592 35.336C453.808 35.336 451.712 34.568 450.304 33.032C448.896 31.464 448.192 29.16 448.192 26.12V13.064C448.192 12.488 448.368 12.024 448.72 11.672C449.072 11.32 449.552 11.144 450.16 11.144C450.768 11.144 451.232 11.32 451.552 11.672C451.904 12.024 452.08 12.488 452.08 13.064V26.024C452.08 28.104 452.496 29.64 453.328 30.632C454.16 31.592 455.472 32.072 457.264 32.072C459.312 32.072 460.96 31.416 462.208 30.104C463.456 28.76 464.08 27 464.08 24.824V13.064C464.08 12.488 464.256 12.024 464.608 11.672C464.96 11.32 465.44 11.144 466.048 11.144ZM486.954 11.048C492.554 11.048 495.354 14.136 495.354 20.312V33.32C495.354 33.928 495.178 34.408 494.826 34.76C494.506 35.08 494.042 35.24 493.434 35.24C492.826 35.24 492.346 35.08 491.994 34.76C491.642 34.408 491.466 33.928 491.466 33.32V20.552C491.466 18.376 491.034 16.792 490.17 15.8C489.338 14.808 487.994 14.312 486.138 14.312C483.994 14.312 482.282 14.968 481.002 16.28C479.722 17.592 479.082 19.368 479.082 21.608V33.32C479.082 33.928 478.906 34.408 478.554 34.76C478.234 35.08 477.77 35.24 477.162 35.24C476.554 35.24 476.074 35.08 475.722 34.76C475.37 34.408 475.194 33.928 475.194 33.32V13.064C475.194 12.488 475.37 12.024 475.722 11.672C476.074 11.32 476.554 11.144 477.162 11.144C477.738 11.144 478.186 11.32 478.506 11.672C478.858 12.024 479.034 12.472 479.034 13.016V15.464C479.802 14.024 480.874 12.936 482.25 12.2C483.626 11.432 485.194 11.048 486.954 11.048ZM513.275 32.168C514.395 32.264 514.955 32.776 514.955 33.704C514.955 34.248 514.747 34.664 514.331 34.952C513.947 35.208 513.355 35.304 512.555 35.24L511.259 35.144C508.699 34.952 506.811 34.184 505.595 32.84C504.379 31.496 503.771 29.464 503.771 26.744V14.696H500.555C500.011 14.696 499.579 14.568 499.259 14.312C498.971 14.024 498.827 13.656 498.827 13.208C498.827 12.728 498.971 12.344 499.259 12.056C499.579 11.768 500.011 11.624 500.555 11.624H503.771V6.2C503.771 5.592 503.947 5.128 504.299 4.808C504.651 4.456 505.131 4.28 505.739 4.28C506.315 4.28 506.779 4.456 507.131 4.808C507.483 5.128 507.659 5.592 507.659 6.2V11.624H512.987C513.499 11.624 513.899 11.768 514.187 12.056C514.507 12.344 514.667 12.728 514.667 13.208C514.667 13.656 514.507 14.024 514.187 14.312C513.899 14.568 513.499 14.696 512.987 14.696H507.659V26.936C507.659 28.696 508.011 29.976 508.715 30.776C509.451 31.544 510.539 31.976 511.979 32.072L513.275 32.168Z" fill="black"/>
</svg>
