<svg width="515" height="53" viewBox="0 0 515 53" fill="none" xmlns="http://www.w3.org/2000/svg">
<path d="M415.382 14.6998C412.41 24.4751 417.924 34.8092 427.7 37.7818L438.247 40.9889C439.027 41.2261 439.851 40.7861 440.089 40.0061L445.914 20.8484C448.405 12.6583 443.784 3.99992 435.594 1.50943C427.404 -0.981058 418.745 3.63941 416.255 11.8295L415.382 14.6998Z" fill="#FFB73E"/>
<path d="M2.096 44C1.552 44 1.088 43.84 0.704 43.52C0.352 43.168 0.176 42.72 0.176 42.176V11.936C0.176 11.328 0.352 10.848 0.704 10.496C1.056 10.112 1.536 9.92 2.144 9.92C2.752 9.92 3.232 10.112 3.584 10.496C3.936 10.848 4.112 11.328 4.112 11.936V40.64H19.616C20.192 40.64 20.64 40.784 20.96 41.072C21.28 41.36 21.44 41.776 21.44 42.32C21.44 42.864 21.28 43.28 20.96 43.568C20.64 43.856 20.192 44 19.616 44H2.096ZM35.171 44.336C32.963 44.336 31.011 43.84 29.315 42.848C27.651 41.856 26.355 40.448 25.427 38.624C24.531 36.768 24.083 34.624 24.083 32.192C24.083 29.76 24.531 27.632 25.427 25.808C26.355 23.952 27.651 22.528 29.315 21.536C31.011 20.544 32.963 20.048 35.171 20.048C37.379 20.048 39.331 20.544 41.027 21.536C42.723 22.528 44.019 23.952 44.915 25.808C45.843 27.632 46.307 29.76 46.307 32.192C46.307 34.624 45.843 36.768 44.915 38.624C44.019 40.448 42.723 41.856 41.027 42.848C39.331 43.84 37.379 44.336 35.171 44.336ZM35.171 41.12C37.475 41.12 39.235 40.368 40.451 38.864C41.699 37.328 42.323 35.104 42.323 32.192C42.323 29.344 41.699 27.152 40.451 25.616C39.203 24.048 37.443 23.264 35.171 23.264C32.899 23.264 31.139 24.048 29.891 25.616C28.643 27.152 28.019 29.344 28.019 32.192C28.019 35.072 28.627 37.28 29.843 38.816C31.091 40.352 32.867 41.12 35.171 41.12ZM71.06 20.144C71.668 20.144 72.148 20.32 72.5 20.672C72.852 21.024 73.028 21.488 73.028 22.064V42.416C73.028 45.904 72.132 48.528 70.34 50.288C68.548 52.08 65.892 52.976 62.372 52.976C58.948 52.976 56.1 52.304 53.828 50.96C52.676 50.32 52.1 49.584 52.1 48.752C52.1 48.304 52.212 47.936 52.436 47.648C52.692 47.36 53.012 47.216 53.396 47.216C53.716 47.216 54.292 47.44 55.124 47.888C56.244 48.464 57.348 48.928 58.436 49.28C59.524 49.632 60.82 49.808 62.324 49.808C64.596 49.808 66.308 49.2 67.46 47.984C68.612 46.8 69.188 45.056 69.188 42.752V38.624C68.516 40.128 67.476 41.28 66.068 42.08C64.692 42.88 63.06 43.28 61.172 43.28C59.124 43.28 57.3 42.8 55.7 41.84C54.132 40.88 52.9 39.52 52.004 37.76C51.14 36 50.708 33.968 50.708 31.664C50.708 29.36 51.14 27.328 52.004 25.568C52.9 23.808 54.132 22.448 55.7 21.488C57.3 20.528 59.124 20.048 61.172 20.048C63.028 20.048 64.644 20.448 66.02 21.248C67.396 22.048 68.436 23.184 69.14 24.656V22.064C69.14 21.488 69.3 21.024 69.62 20.672C69.972 20.32 70.452 20.144 71.06 20.144ZM61.94 40.064C64.18 40.064 65.94 39.328 67.22 37.856C68.5 36.352 69.14 34.288 69.14 31.664C69.14 29.072 68.5 27.04 67.22 25.568C65.972 24.064 64.212 23.312 61.94 23.312C59.668 23.312 57.876 24.064 56.564 25.568C55.284 27.04 54.644 29.072 54.644 31.664C54.644 34.288 55.284 36.352 56.564 37.856C57.876 39.328 59.668 40.064 61.94 40.064ZM82.193 44.24C81.617 44.24 81.137 44.08 80.753 43.76C80.401 43.408 80.225 42.928 80.225 42.32V22.064C80.225 21.456 80.401 20.992 80.753 20.672C81.137 20.32 81.617 20.144 82.193 20.144C82.769 20.144 83.233 20.32 83.585 20.672C83.937 20.992 84.113 21.456 84.113 22.064V42.32C84.113 42.96 83.937 43.44 83.585 43.76C83.233 44.08 82.769 44.24 82.193 44.24ZM82.193 15.104C81.425 15.104 80.801 14.88 80.321 14.432C79.841 13.984 79.601 13.392 79.601 12.656C79.601 11.952 79.841 11.376 80.321 10.928C80.801 10.48 81.425 10.256 82.193 10.256C82.961 10.256 83.585 10.48 84.065 10.928C84.545 11.376 84.785 11.952 84.785 12.656C84.785 13.392 84.545 13.984 84.065 14.432C83.585 14.88 82.961 15.104 82.193 15.104ZM103.141 20.048C108.741 20.048 111.541 23.136 111.541 29.312V42.32C111.541 42.928 111.365 43.408 111.013 43.76C110.693 44.08 110.229 44.24 109.621 44.24C109.013 44.24 108.533 44.08 108.181 43.76C107.829 43.408 107.653 42.928 107.653 42.32V29.552C107.653 27.376 107.221 25.792 106.357 24.8C105.525 23.808 104.181 23.312 102.325 23.312C100.181 23.312 98.4693 23.968 97.1893 25.28C95.9093 26.592 95.2693 28.368 95.2693 30.608V42.32C95.2693 42.928 95.0933 43.408 94.7413 43.76C94.4213 44.08 93.9573 44.24 93.3493 44.24C92.7413 44.24 92.2613 44.08 91.9093 43.76C91.5573 43.408 91.3813 42.928 91.3813 42.32V22.064C91.3813 21.488 91.5573 21.024 91.9093 20.672C92.2613 20.32 92.7413 20.144 93.3493 20.144C93.9253 20.144 94.3733 20.32 94.6933 20.672C95.0453 21.024 95.2213 21.472 95.2213 22.016V24.464C95.9893 23.024 97.0613 21.936 98.4373 21.2C99.8133 20.432 101.381 20.048 103.141 20.048ZM141.838 41.168C142.958 41.264 143.518 41.776 143.518 42.704C143.518 43.248 143.31 43.664 142.894 43.952C142.51 44.208 141.918 44.304 141.118 44.24L139.822 44.144C137.262 43.952 135.374 43.184 134.158 41.84C132.942 40.496 132.334 38.464 132.334 35.744V23.696H129.118C128.574 23.696 128.142 23.568 127.822 23.312C127.534 23.024 127.389 22.656 127.389 22.208C127.389 21.728 127.534 21.344 127.822 21.056C128.142 20.768 128.574 20.624 129.118 20.624H132.334V15.2C132.334 14.592 132.51 14.128 132.862 13.808C133.214 13.456 133.694 13.28 134.302 13.28C134.878 13.28 135.342 13.456 135.694 13.808C136.046 14.128 136.222 14.592 136.222 15.2V20.624H141.549C142.062 20.624 142.462 20.768 142.75 21.056C143.07 21.344 143.23 21.728 143.23 22.208C143.23 22.656 143.07 23.024 142.75 23.312C142.462 23.568 142.062 23.696 141.549 23.696H136.222V35.936C136.222 37.696 136.574 38.976 137.278 39.776C138.014 40.544 139.102 40.976 140.542 41.072L141.838 41.168ZM157.046 44.336C154.838 44.336 152.886 43.84 151.19 42.848C149.526 41.856 148.23 40.448 147.302 38.624C146.406 36.768 145.958 34.624 145.958 32.192C145.958 29.76 146.406 27.632 147.302 25.808C148.23 23.952 149.526 22.528 151.19 21.536C152.886 20.544 154.838 20.048 157.046 20.048C159.254 20.048 161.206 20.544 162.902 21.536C164.598 22.528 165.894 23.952 166.79 25.808C167.718 27.632 168.182 29.76 168.182 32.192C168.182 34.624 167.718 36.768 166.79 38.624C165.894 40.448 164.598 41.856 162.902 42.848C161.206 43.84 159.254 44.336 157.046 44.336ZM157.046 41.12C159.35 41.12 161.11 40.368 162.326 38.864C163.574 37.328 164.198 35.104 164.198 32.192C164.198 29.344 163.574 27.152 162.326 25.616C161.078 24.048 159.318 23.264 157.046 23.264C154.774 23.264 153.014 24.048 151.766 25.616C150.518 27.152 149.894 29.344 149.894 32.192C149.894 35.072 150.502 37.28 151.718 38.816C152.966 40.352 154.742 41.12 157.046 41.12ZM216.062 41.744C216.19 42 216.254 42.272 216.254 42.56C216.254 43.04 216.062 43.44 215.678 43.76C215.326 44.08 214.894 44.24 214.382 44.24C213.582 44.24 213.022 43.856 212.702 43.088L209.294 35.312H191.198L187.742 43.088C187.422 43.856 186.862 44.24 186.062 44.24C185.55 44.24 185.102 44.08 184.718 43.76C184.334 43.408 184.142 42.992 184.142 42.512C184.142 42.256 184.206 42 184.334 41.744L198.062 11.216C198.254 10.768 198.542 10.432 198.926 10.208C199.31 9.984 199.726 9.872 200.174 9.872C200.654 9.872 201.086 10 201.47 10.256C201.854 10.48 202.142 10.8 202.334 11.216L216.062 41.744ZM192.638 32.048H207.854L200.222 14.816L192.638 32.048ZM239.993 9.92C240.601 9.92 241.081 10.096 241.433 10.448C241.785 10.8 241.961 11.248 241.961 11.792V42.32C241.961 42.896 241.785 43.36 241.433 43.712C241.081 44.064 240.601 44.24 239.993 44.24C239.385 44.24 238.905 44.064 238.553 43.712C238.233 43.36 238.073 42.896 238.073 42.32V39.728C237.369 41.2 236.329 42.336 234.953 43.136C233.609 43.936 232.025 44.336 230.201 44.336C228.153 44.336 226.345 43.824 224.777 42.8C223.209 41.776 221.993 40.352 221.129 38.528C220.265 36.672 219.833 34.528 219.833 32.096C219.833 29.696 220.265 27.584 221.129 25.76C221.993 23.936 223.209 22.528 224.777 21.536C226.345 20.544 228.153 20.048 230.201 20.048C232.025 20.048 233.609 20.448 234.953 21.248C236.329 22.048 237.369 23.184 238.073 24.656V11.792C238.073 11.216 238.233 10.768 238.553 10.448C238.905 10.096 239.385 9.92 239.993 9.92ZM230.969 41.12C233.241 41.12 234.985 40.352 236.201 38.816C237.449 37.248 238.073 35.04 238.073 32.192C238.073 29.344 237.449 27.152 236.201 25.616C234.985 24.08 233.241 23.312 230.969 23.312C228.697 23.312 226.921 24.08 225.641 25.616C224.393 27.152 223.769 29.312 223.769 32.096C223.769 34.944 224.393 37.168 225.641 38.768C226.921 40.336 228.697 41.12 230.969 41.12ZM275.179 20.048C280.363 20.048 282.955 23.136 282.955 29.312V42.32C282.955 42.928 282.779 43.408 282.427 43.76C282.075 44.08 281.611 44.24 281.035 44.24C280.459 44.24 279.979 44.08 279.595 43.76C279.243 43.408 279.067 42.928 279.067 42.32V29.408C279.067 27.264 278.683 25.712 277.915 24.752C277.147 23.792 275.947 23.312 274.315 23.312C272.363 23.312 270.827 23.968 269.707 25.28C268.587 26.592 268.027 28.368 268.027 30.608V42.32C268.027 42.928 267.835 43.408 267.451 43.76C267.099 44.08 266.635 44.24 266.059 44.24C265.483 44.24 265.019 44.08 264.667 43.76C264.315 43.408 264.139 42.928 264.139 42.32V29.408C264.139 27.264 263.755 25.712 262.987 24.752C262.219 23.792 261.003 23.312 259.339 23.312C257.419 23.312 255.883 23.968 254.731 25.28C253.611 26.592 253.051 28.368 253.051 30.608V42.32C253.051 42.928 252.875 43.408 252.523 43.76C252.171 44.08 251.707 44.24 251.131 44.24C250.555 44.24 250.075 44.08 249.691 43.76C249.339 43.408 249.163 42.928 249.163 42.32V22.064C249.163 21.488 249.339 21.024 249.691 20.672C250.075 20.32 250.555 20.144 251.131 20.144C251.675 20.144 252.123 20.32 252.475 20.672C252.827 20.992 253.003 21.44 253.003 22.016V24.32C253.707 22.944 254.683 21.888 255.931 21.152C257.179 20.416 258.619 20.048 260.251 20.048C263.899 20.048 266.283 21.584 267.403 24.656C268.075 23.248 269.099 22.128 270.475 21.296C271.851 20.464 273.419 20.048 275.179 20.048ZM292.006 44.24C291.43 44.24 290.95 44.08 290.566 43.76C290.214 43.408 290.038 42.928 290.038 42.32V22.064C290.038 21.456 290.214 20.992 290.566 20.672C290.95 20.32 291.43 20.144 292.006 20.144C292.582 20.144 293.046 20.32 293.398 20.672C293.75 20.992 293.926 21.456 293.926 22.064V42.32C293.926 42.96 293.75 43.44 293.398 43.76C293.046 44.08 292.582 44.24 292.006 44.24ZM292.006 15.104C291.238 15.104 290.614 14.88 290.134 14.432C289.654 13.984 289.414 13.392 289.414 12.656C289.414 11.952 289.654 11.376 290.134 10.928C290.614 10.48 291.238 10.256 292.006 10.256C292.774 10.256 293.398 10.48 293.878 10.928C294.358 11.376 294.598 11.952 294.598 12.656C294.598 13.392 294.358 13.984 293.878 14.432C293.398 14.88 292.774 15.104 292.006 15.104ZM312.954 20.048C318.554 20.048 321.354 23.136 321.354 29.312V42.32C321.354 42.928 321.178 43.408 320.826 43.76C320.506 44.08 320.042 44.24 319.434 44.24C318.826 44.24 318.346 44.08 317.994 43.76C317.642 43.408 317.466 42.928 317.466 42.32V29.552C317.466 27.376 317.034 25.792 316.17 24.8C315.338 23.808 313.994 23.312 312.138 23.312C309.994 23.312 308.282 23.968 307.002 25.28C305.722 26.592 305.082 28.368 305.082 30.608V42.32C305.082 42.928 304.906 43.408 304.554 43.76C304.234 44.08 303.77 44.24 303.162 44.24C302.554 44.24 302.074 44.08 301.722 43.76C301.37 43.408 301.194 42.928 301.194 42.32V22.064C301.194 21.488 301.37 21.024 301.722 20.672C302.074 20.32 302.554 20.144 303.162 20.144C303.738 20.144 304.186 20.32 304.506 20.672C304.858 21.024 305.034 21.472 305.034 22.016V24.464C305.802 23.024 306.874 21.936 308.25 21.2C309.626 20.432 311.194 20.048 312.954 20.048ZM370.562 41.744C370.69 42 370.754 42.272 370.754 42.56C370.754 43.04 370.562 43.44 370.178 43.76C369.826 44.08 369.394 44.24 368.882 44.24C368.082 44.24 367.522 43.856 367.202 43.088L363.794 35.312H345.698L342.242 43.088C341.922 43.856 341.362 44.24 340.562 44.24C340.05 44.24 339.602 44.08 339.218 43.76C338.834 43.408 338.642 42.992 338.642 42.512C338.642 42.256 338.706 42 338.834 41.744L352.562 11.216C352.754 10.768 353.042 10.432 353.426 10.208C353.81 9.984 354.226 9.872 354.674 9.872C355.154 9.872 355.586 10 355.97 10.256C356.354 10.48 356.642 10.8 356.834 11.216L370.562 41.744ZM347.138 32.048H362.354L354.722 14.816L347.138 32.048ZM385.373 44.336C383.197 44.336 381.261 43.84 379.565 42.848C377.901 41.856 376.605 40.448 375.677 38.624C374.781 36.8 374.333 34.688 374.333 32.288C374.333 29.888 374.797 27.76 375.725 25.904C376.685 24.048 378.013 22.608 379.709 21.584C381.405 20.56 383.357 20.048 385.565 20.048C386.781 20.048 387.981 20.224 389.165 20.576C390.381 20.896 391.437 21.376 392.333 22.016C392.909 22.4 393.309 22.784 393.533 23.168C393.789 23.52 393.917 23.92 393.917 24.368C393.917 24.816 393.789 25.184 393.533 25.472C393.309 25.76 393.005 25.904 392.621 25.904C392.397 25.904 392.157 25.84 391.901 25.712C391.645 25.584 391.421 25.456 391.229 25.328C391.069 25.2 390.957 25.12 390.893 25.088C390.061 24.544 389.261 24.112 388.493 23.792C387.757 23.472 386.845 23.312 385.757 23.312C383.421 23.312 381.597 24.112 380.285 25.712C379.005 27.28 378.365 29.472 378.365 32.288C378.365 35.104 379.005 37.28 380.285 38.816C381.597 40.352 383.421 41.12 385.757 41.12C386.845 41.12 387.773 40.96 388.541 40.64C389.341 40.32 390.141 39.888 390.941 39.344C391.293 39.12 391.629 38.928 391.949 38.768C392.269 38.608 392.541 38.528 392.765 38.528C393.117 38.528 393.405 38.672 393.629 38.96C393.885 39.248 394.013 39.616 394.013 40.064C394.013 40.48 393.901 40.864 393.677 41.216C393.453 41.536 393.037 41.904 392.429 42.32C391.533 42.928 390.445 43.424 389.165 43.808C387.917 44.16 386.653 44.336 385.373 44.336ZM408.342 44.336C406.166 44.336 404.23 43.84 402.534 42.848C400.87 41.856 399.574 40.448 398.646 38.624C397.75 36.8 397.302 34.688 397.302 32.288C397.302 29.888 397.766 27.76 398.694 25.904C399.654 24.048 400.982 22.608 402.678 21.584C404.374 20.56 406.326 20.048 408.534 20.048C409.75 20.048 410.95 20.224 412.134 20.576C413.35 20.896 414.406 21.376 415.302 22.016C415.878 22.4 416.278 22.784 416.502 23.168C416.758 23.52 416.886 23.92 416.886 24.368C416.886 24.816 416.758 25.184 416.502 25.472C416.278 25.76 415.974 25.904 415.59 25.904C415.366 25.904 415.126 25.84 414.87 25.712C414.614 25.584 414.39 25.456 414.198 25.328C414.038 25.2 413.926 25.12 413.862 25.088C413.03 24.544 412.23 24.112 411.462 23.792C410.726 23.472 409.814 23.312 408.726 23.312C406.39 23.312 404.566 24.112 403.254 25.712C401.974 27.28 401.334 29.472 401.334 32.288C401.334 35.104 401.974 37.28 403.254 38.816C404.566 40.352 406.39 41.12 408.726 41.12C409.814 41.12 410.742 40.96 411.51 40.64C412.31 40.32 413.11 39.888 413.91 39.344C414.262 39.12 414.598 38.928 414.918 38.768C415.238 38.608 415.51 38.528 415.734 38.528C416.086 38.528 416.374 38.672 416.598 38.96C416.854 39.248 416.982 39.616 416.982 40.064C416.982 40.48 416.87 40.864 416.646 41.216C416.422 41.536 416.006 41.904 415.398 42.32C414.502 42.928 413.414 43.424 412.134 43.808C410.886 44.16 409.622 44.336 408.342 44.336ZM431.359 44.336C429.151 44.336 427.199 43.84 425.503 42.848C423.839 41.856 422.543 40.448 421.615 38.624C420.719 36.768 420.271 34.624 420.271 32.192C420.271 29.76 420.719 27.632 421.615 25.808C422.543 23.952 423.839 22.528 425.503 21.536C427.199 20.544 429.151 20.048 431.359 20.048C433.567 20.048 435.519 20.544 437.215 21.536C438.911 22.528 440.207 23.952 441.103 25.808C442.031 27.632 442.495 29.76 442.495 32.192C442.495 34.624 442.031 36.768 441.103 38.624C440.207 40.448 438.911 41.856 437.215 42.848C435.519 43.84 433.567 44.336 431.359 44.336ZM431.359 41.12C433.663 41.12 435.423 40.368 436.639 38.864C437.887 37.328 438.511 35.104 438.511 32.192C438.511 29.344 437.887 27.152 436.639 25.616C435.391 24.048 433.631 23.264 431.359 23.264C429.087 23.264 427.327 24.048 426.079 25.616C424.831 27.152 424.207 29.344 424.207 32.192C424.207 35.072 424.815 37.28 426.031 38.816C427.279 40.352 429.055 41.12 431.359 41.12ZM466.048 20.144C466.656 20.144 467.12 20.32 467.44 20.672C467.792 21.024 467.968 21.488 467.968 22.064V42.368C467.968 42.912 467.792 43.36 467.44 43.712C467.12 44.064 466.656 44.24 466.048 44.24C465.472 44.24 465.008 44.08 464.656 43.76C464.336 43.408 464.176 42.96 464.176 42.416V40.016C463.44 41.424 462.4 42.496 461.056 43.232C459.744 43.968 458.256 44.336 456.592 44.336C453.808 44.336 451.712 43.568 450.304 42.032C448.896 40.464 448.192 38.16 448.192 35.12V22.064C448.192 21.488 448.368 21.024 448.72 20.672C449.072 20.32 449.552 20.144 450.16 20.144C450.768 20.144 451.232 20.32 451.552 20.672C451.904 21.024 452.08 21.488 452.08 22.064V35.024C452.08 37.104 452.496 38.64 453.328 39.632C454.16 40.592 455.472 41.072 457.264 41.072C459.312 41.072 460.96 40.416 462.208 39.104C463.456 37.76 464.08 36 464.08 33.824V22.064C464.08 21.488 464.256 21.024 464.608 20.672C464.96 20.32 465.44 20.144 466.048 20.144ZM486.954 20.048C492.554 20.048 495.354 23.136 495.354 29.312V42.32C495.354 42.928 495.178 43.408 494.826 43.76C494.506 44.08 494.042 44.24 493.434 44.24C492.826 44.24 492.346 44.08 491.994 43.76C491.642 43.408 491.466 42.928 491.466 42.32V29.552C491.466 27.376 491.034 25.792 490.17 24.8C489.338 23.808 487.994 23.312 486.138 23.312C483.994 23.312 482.282 23.968 481.002 25.28C479.722 26.592 479.082 28.368 479.082 30.608V42.32C479.082 42.928 478.906 43.408 478.554 43.76C478.234 44.08 477.77 44.24 477.162 44.24C476.554 44.24 476.074 44.08 475.722 43.76C475.37 43.408 475.194 42.928 475.194 42.32V22.064C475.194 21.488 475.37 21.024 475.722 20.672C476.074 20.32 476.554 20.144 477.162 20.144C477.738 20.144 478.186 20.32 478.506 20.672C478.858 21.024 479.034 21.472 479.034 22.016V24.464C479.802 23.024 480.874 21.936 482.25 21.2C483.626 20.432 485.194 20.048 486.954 20.048ZM513.275 41.168C514.395 41.264 514.955 41.776 514.955 42.704C514.955 43.248 514.747 43.664 514.331 43.952C513.947 44.208 513.355 44.304 512.555 44.24L511.259 44.144C508.699 43.952 506.811 43.184 505.595 41.84C504.379 40.496 503.771 38.464 503.771 35.744V23.696H500.555C500.011 23.696 499.579 23.568 499.259 23.312C498.971 23.024 498.827 22.656 498.827 22.208C498.827 21.728 498.971 21.344 499.259 21.056C499.579 20.768 500.011 20.624 500.555 20.624H503.771V15.2C503.771 14.592 503.947 14.128 504.299 13.808C504.651 13.456 505.131 13.28 505.739 13.28C506.315 13.28 506.779 13.456 507.131 13.808C507.483 14.128 507.659 14.592 507.659 15.2V20.624H512.987C513.499 20.624 513.899 20.768 514.187 21.056C514.507 21.344 514.667 21.728 514.667 22.208C514.667 22.656 514.507 23.024 514.187 23.312C513.899 23.568 513.499 23.696 512.987 23.696H507.659V35.936C507.659 37.696 508.011 38.976 508.715 39.776C509.451 40.544 510.539 40.976 511.979 41.072L513.275 41.168Z" fill="black"/>
</svg>
