<svg width="18" height="17" viewBox="0 0 18 17" fill="none" xmlns="http://www.w3.org/2000/svg">
<path d="M16.4607 5.2383C15.5212 3.94924 14.2087 3.08791 12.7693 2.69924V2.70119C12.4353 2.3301 12.0583 1.9883 11.6365 1.68361C8.43919 -0.640606 3.95091 0.0683787 1.61693 3.26564C-0.263933 5.8633 -0.183854 9.35744 1.73411 11.8399L1.74974 14.4297C1.74974 14.4922 1.7595 14.5547 1.77904 14.6133C1.88255 14.9434 2.23411 15.125 2.56224 15.0215L5.03489 14.2422C5.68919 14.4746 6.36497 14.6074 7.03685 14.6446L7.02708 14.6524C8.76732 15.9199 11.0486 16.3008 13.1404 15.6094L15.6228 16.418C15.6853 16.4375 15.7497 16.4492 15.8161 16.4492C16.1618 16.4492 16.4411 16.1699 16.4411 15.8242V13.2071C18.1618 10.8711 18.2068 7.6426 16.4607 5.2383ZM5.30833 12.8555L5.07396 12.7578L3.14036 13.3633L3.12083 11.3321L2.96458 11.1563C1.31224 9.14064 1.20286 6.23635 2.74974 4.10549C4.63255 1.52346 8.24193 0.953144 10.8161 2.81643C13.3982 4.69338 13.9704 8.29689 12.1052 10.8633C10.5408 13.0098 7.73997 13.8028 5.30833 12.8555ZM15.1716 12.5235L15.0154 12.7188L15.0349 14.75L13.1208 14.1055L12.8865 14.2031C11.7927 14.6094 10.6267 14.6426 9.54661 14.3399L9.54271 14.3379C10.9861 13.8946 12.2947 12.9961 13.238 11.7031C14.7302 9.6465 14.9724 7.06252 14.1052 4.85939L14.1169 4.86721C14.5661 5.18947 14.9783 5.59182 15.3279 6.07814C16.7458 8.02346 16.6658 10.6719 15.1716 12.5235Z" fill="#0052A8"/>
</svg>
