<svg width="80" height="80" viewBox="0 0 80 80" fill="none" xmlns="http://www.w3.org/2000/svg">
<circle cx="40" cy="40" r="40" fill="#0052A8" fill-opacity="0.8"/>
<path d="M34 38C35.5823 38 37.129 37.5308 38.4446 36.6518C39.7602 35.7727 40.7855 34.5233 41.391 33.0615C41.9965 31.5997 42.155 29.9911 41.8463 28.4393C41.5376 26.8874 40.7757 25.462 39.6569 24.3431C38.538 23.2243 37.1126 22.4624 35.5607 22.1537C34.0089 21.845 32.4003 22.0035 30.9385 22.609C29.4767 23.2145 28.2273 24.2398 27.3482 25.5554C26.4692 26.871 26 28.4178 26 30C26 32.1217 26.8429 34.1566 28.3431 35.6569C29.8434 37.1572 31.8783 38 34 38ZM50 42C51.1867 42 52.3467 41.6481 53.3334 40.9888C54.3201 40.3295 55.0892 39.3925 55.5433 38.2961C55.9974 37.1997 56.1162 35.9934 55.8847 34.8295C55.6532 33.6656 55.0818 32.5965 54.2426 31.7574C53.4035 30.9182 52.3344 30.3468 51.1705 30.1153C50.0067 29.8838 48.8003 30.0026 47.7039 30.4567C46.6075 30.9109 45.6705 31.6799 45.0112 32.6666C44.3519 33.6533 44 34.8133 44 36C44 37.5913 44.6321 39.1174 45.7574 40.2426C46.8826 41.3679 48.4087 42 50 42ZM58 56C58.5304 56 59.0391 55.7893 59.4142 55.4142C59.7893 55.0392 60 54.5304 60 54C59.9984 52.1308 59.4729 50.2995 58.4832 48.7138C57.4935 47.1281 56.0792 45.8515 54.4007 45.0289C52.7222 44.2064 50.8468 43.8707 48.9872 44.06C47.1276 44.2493 45.3583 44.9561 43.88 46.1C41.921 44.1487 39.4281 42.8212 36.7156 42.2849C34.0032 41.7485 31.1926 42.0274 28.6385 43.0863C26.0843 44.1452 23.9008 45.9367 22.3635 48.2349C20.8261 50.5331 20.0037 53.235 20 56C20 56.5304 20.2107 57.0392 20.5858 57.4142C20.9609 57.7893 21.4696 58 22 58H46C46.5304 58 47.0391 57.7893 47.4142 57.4142C47.7893 57.0392 48 56.5304 48 56" fill="white"/>
</svg>
