<svg width="80" height="80" viewBox="0 0 80 80" fill="none" xmlns="http://www.w3.org/2000/svg">
<circle cx="40" cy="40" r="40" fill="#0052A8" fill-opacity="0.8"/>
<path d="M40 50.5C39.7389 50.5 39.4823 50.4318 39.2556 50.3022L26.125 42.7975C26.0109 42.7316 25.8815 42.697 25.7497 42.697C25.618 42.6971 25.4886 42.7318 25.3745 42.7978C25.2605 42.8637 25.1658 42.9586 25.1001 43.0727C25.0343 43.1869 24.9998 43.3164 25 43.4481V50.5C24.9998 50.7677 25.0712 51.0306 25.2069 51.2614C25.3426 51.4922 25.5375 51.6825 25.7716 51.8125L39.2716 59.3125C39.4944 59.4363 39.7451 59.5013 40 59.5013C40.2549 59.5013 40.5056 59.4363 40.7284 59.3125L54.2284 51.8125C54.4625 51.6825 54.6574 51.4922 54.7931 51.2614C54.9288 51.0306 55.0002 50.7677 55 50.5V43.4481C55.0002 43.3164 54.9657 43.1869 54.8999 43.0727C54.8342 42.9586 54.7395 42.8637 54.6255 42.7978C54.5114 42.7318 54.382 42.6971 54.2503 42.697C54.1185 42.697 53.9891 42.7316 53.875 42.7975L40.7444 50.3022C40.5177 50.4318 40.2611 50.5 40 50.5Z" fill="white"/>
<path d="M62.4923 33.8593V33.849C62.468 33.6112 62.3873 33.3827 62.2568 33.1824C62.1264 32.9822 61.95 32.816 61.7423 32.6977L40.7423 20.6977C40.5156 20.5682 40.259 20.5 39.9979 20.5C39.7368 20.5 39.4802 20.5682 39.2535 20.6977L18.2535 32.6977C18.024 32.829 17.8333 33.0185 17.7006 33.2472C17.5679 33.4759 17.498 33.7355 17.498 33.9999C17.498 34.2643 17.5679 34.524 17.7006 34.7527C17.8333 34.9813 18.024 35.1709 18.2535 35.3021L39.2535 47.3021C39.4802 47.4317 39.7368 47.4998 39.9979 47.4998C40.259 47.4998 40.5156 47.4317 40.7423 47.3021L59.2185 36.7449C59.2471 36.7284 59.2795 36.7198 59.3125 36.7198C59.3454 36.7198 59.3778 36.7286 59.4063 36.7451C59.4349 36.7616 59.4585 36.7854 59.4749 36.814C59.4913 36.8426 59.4999 36.8751 59.4998 36.908V50.4577C59.4998 51.2649 60.1204 51.9577 60.9276 51.998C61.1304 52.0078 61.3331 51.9763 61.5234 51.9054C61.7136 51.8345 61.8876 51.7258 62.0346 51.5857C62.1815 51.4456 62.2986 51.2772 62.3785 51.0905C62.4585 50.9039 62.4998 50.703 62.4998 50.4999V33.9999C62.4997 33.9529 62.4972 33.906 62.4923 33.8593Z" fill="white"/>
</svg>

